<svg width="14" height="12" viewBox="0 0 14 12" fill="none" xmlns="http://www.w3.org/2000/svg">
<path d="M13.6667 5.99985C13.6667 6.27485 13.4719 6.49986 13.1997 6.49986H1.94693L6.14394 11.1656C6.32759 11.3697 6.31259 11.6862 6.1106 11.8716C6.01497 11.9562 5.89435 12 5.77682 12C5.64246 12 5.50811 11.9453 5.41062 11.8359L0.462045 6.33579C0.290484 6.14535 0.290484 5.85422 0.462045 5.6639L5.41062 0.163759C5.59524 -0.0413091 5.90826 -0.054997 6.10992 0.12957C6.31191 0.315137 6.32691 0.631458 6.14326 0.835526L1.94693 5.49983H13.1997C13.4719 5.49983 13.6667 5.72484 13.6667 5.99985Z" fill="currentColor"/>
</svg>
