<svg width="24" height="24" viewBox="0 0 24 24" fill="none" xmlns="http://www.w3.org/2000/svg">
<path d="M8.90442 17.625C7.5757 17.625 6.49872 18.6043 6.49872 19.8125C6.49872 21.0207 7.57699 22 8.90442 22C10.2318 22 11.3101 21.0207 11.3101 19.8125C11.3101 18.6043 10.2318 17.625 8.90442 17.625ZM8.90442 20.75C8.33607 20.75 7.87341 20.3293 7.87341 19.8125C7.87341 19.2957 8.33607 18.875 8.90442 18.875C9.47276 18.875 9.93543 19.2957 9.93543 19.8125C9.93543 20.3281 9.47147 20.75 8.90442 20.75ZM22.7396 4.99688C22.4818 4.68555 22.0651 4.5 21.6269 4.5H5.60948L5.10686 2.48711C5.03555 2.20141 4.75761 2 4.4367 2H1.68734C1.30741 2 1 2.27953 1 2.625C1 2.97047 1.30741 3.25 1.68734 3.25H3.88769L7.20368 16.5117C7.27628 16.7969 7.55122 17 7.87341 17H20.5892C20.9691 17 21.2765 16.7205 21.2765 16.375C21.2765 16.0295 20.9715 15.75 20.5892 15.75H8.42328L8.10968 14.5H18.7143C19.6405 14.5 20.4598 13.9578 20.7038 13.1816L22.9496 6.0293C23.0618 5.67305 22.9844 5.29727 22.7396 4.99688ZM19.3845 12.8359C19.3072 13.082 19.0322 13.25 18.7143 13.25H7.87341C7.84763 13.25 7.82615 13.2617 7.80038 13.2617L5.92308 5.74727L21.6312 5.68637L19.3845 12.8359ZM18.7563 17.625C17.4276 17.625 16.3506 18.6043 16.3506 19.8125C16.3506 21.0207 17.4289 22 18.7563 22C20.0837 22 21.162 21.0207 21.162 19.8125C21.162 18.6043 20.0837 17.625 18.7563 17.625ZM18.7563 20.75C18.188 20.75 17.7253 20.3293 17.7253 19.8125C17.7253 19.2957 18.188 18.875 18.7563 18.875C19.3246 18.875 19.7873 19.2957 19.7873 19.8125C19.7873 20.3281 19.3234 20.75 18.7563 20.75Z" fill="currentColor"/>
</svg>
