<svg width="24" height="24" viewBox="0 0 24 24" fill="none" xmlns="http://www.w3.org/2000/svg">
<g clip-path="url(#clip0_3132_21016)">
<path d="M8.25 6.00009H15.75C16.1625 6.00009 16.5 5.66259 16.5 5.25009C16.5 4.83759 16.1625 4.50009 15.75 4.50009H14.5837C14.8406 4.05712 15 3.54947 15 3.00009C15 1.34306 13.657 9.15527e-05 12 9.15527e-05C10.343 9.15527e-05 9 1.34306 9 3.00009C9 3.54947 9.15839 4.05712 9.41611 4.50009H8.25C7.8375 4.50009 7.5 4.83759 7.5 5.25009C7.5 5.66259 7.8375 6.00009 8.25 6.00009ZM12 1.50009C12.8269 1.50009 13.5 2.17322 13.5 3.00009C13.5 3.82697 12.8269 4.50009 12 4.50009C11.1731 4.50009 10.5 3.82697 10.5 3.00009C10.5 2.17322 11.175 1.50009 12 1.50009ZM18 3.00009C17.5854 3.00009 17.25 3.33553 17.25 3.75009C17.25 4.16465 17.5875 4.50009 18 4.50009C18.8269 4.50009 19.5 5.17228 19.5 6.00009V21.0001C19.5 21.8279 18.8269 22.5001 18 22.5001H6C5.17313 22.5001 4.5 21.8279 4.5 21.0001V6.00009C4.5 5.17228 5.17313 4.50009 6 4.50009C6.41456 4.50009 6.75 4.16465 6.75 3.75009C6.75 3.33553 6.41438 3.00009 6 3.00009C4.34531 3.00009 3 4.34634 3 6.00009V21.0001C3 22.6538 4.34531 24.0001 6 24.0001H18C19.6547 24.0001 21 22.6538 21 21.0001V6.00009C21 4.34634 19.6547 3.00009 18 3.00009ZM6.375 12.0001C6.375 12.6212 6.87891 13.1251 7.5 13.1251C8.12156 13.1251 8.625 12.6212 8.625 12.0001C8.625 11.3785 8.12156 10.8751 7.5 10.8751C6.87891 10.8751 6.375 11.3767 6.375 12.0001ZM7.5 15.3751C6.87891 15.3751 6.375 15.8785 6.375 16.5001C6.375 17.1212 6.87891 17.6251 7.5 17.6251C8.12156 17.6251 8.625 17.1212 8.625 16.5001C8.625 15.8767 8.12344 15.3751 7.5 15.3751ZM17.25 11.2501H11.25C10.8375 11.2501 10.5 11.5876 10.5 12.0001C10.5 12.4126 10.8354 12.7501 11.25 12.7501H17.25C17.6625 12.7501 18 12.4126 18 12.0001C18 11.5876 17.6625 11.2501 17.25 11.2501ZM17.25 15.7501H11.25C10.8375 15.7501 10.5 16.0876 10.5 16.5001C10.5 16.9126 10.8354 17.2501 11.25 17.2501H17.25C17.6646 17.2501 18 16.9147 18 16.5001C18 16.0855 17.6625 15.7501 17.25 15.7501Z" fill="currentColor"/>
</g>
<defs>
<clipPath id="clip0_3132_21016">
<rect width="24" height="24" fill="white"/>
</clipPath>
</defs>
</svg>
