<svg width="20" height="20" viewBox="0 0 20 20" fill="none" xmlns="http://www.w3.org/2000/svg">
<path d="M10.1528 14.8405C9.94938 15.0439 9.94938 15.3737 10.1528 15.5768C10.2537 15.6771 10.3872 15.7292 10.5207 15.7292C10.6541 15.7292 10.7872 15.6783 10.8888 15.5766L14.0138 12.4516C14.2173 12.2481 14.2173 11.9183 14.0138 11.7152L10.8888 8.59022C10.6854 8.38677 10.3556 8.38677 10.1525 8.59022C9.94938 8.79368 9.94906 9.12343 10.1525 9.32655L12.3892 11.5625H2.18734C1.89945 11.5625 1.6665 11.7969 1.6665 12.0833C1.6665 12.3698 1.89945 12.6042 2.18734 12.6042H12.3892L10.1528 14.8405ZM17.7244 5.74543L14.2577 2.27864C13.8638 1.88612 13.3364 1.66666 12.783 1.66666H7.9165C6.76742 1.66666 5.83317 2.59927 5.83317 3.74999V9.47916C5.83317 9.76562 6.06755 9.99999 6.354 9.99999C6.64046 9.99999 6.87484 9.76562 6.87484 9.47916V3.74999C6.87484 3.17479 7.34131 2.70832 7.9165 2.70832H12.0832V6.35416C12.0832 7.21679 12.783 7.91666 13.6457 7.91666H17.2915V16.25C17.2915 16.8252 16.825 17.2917 16.2498 17.2917H7.9165C7.34131 17.2917 6.87484 16.8252 6.87484 16.25V14.6875C6.87484 14.401 6.64046 14.1667 6.354 14.1667C6.06755 14.1667 5.83317 14.401 5.83317 14.6875V16.25C5.83317 17.4007 6.76611 18.3333 7.9165 18.3333H16.2498C17.4006 18.3333 18.3332 17.4007 18.3332 16.25V7.21679C18.3332 6.6634 18.1151 6.13606 17.7244 5.74543ZM13.6457 6.87499C13.3592 6.87499 13.1248 6.64061 13.1248 6.35416V2.77603C13.2706 2.82701 13.4069 2.90123 13.5194 3.01363L16.9862 6.48043C17.0994 6.59179 17.1743 6.72851 17.2231 6.87499H13.6457Z" fill="currentColor"/>
</svg>
