<svg width="24" height="20" viewBox="0 0 24 20" fill="none" xmlns="http://www.w3.org/2000/svg">
<path d="M23.5623 12.0586L19.729 8.30859C19.4794 8.06445 19.0749 8.06445 18.8258 8.30859C18.5766 8.55273 18.5762 8.94844 18.8258 9.19219L21.5698 11.875H9.05556C8.70417 11.875 8.41667 12.1562 8.41667 12.5C8.41667 12.8438 8.70241 13.125 9.05556 13.125H21.5698L18.827 15.8082C18.5774 16.0523 18.5774 16.448 18.827 16.6918C18.9503 16.8125 19.1141 16.875 19.2778 16.875C19.4415 16.875 19.6047 16.814 19.7294 16.6919L23.5627 12.9419C23.8139 12.6992 23.8139 12.3008 23.5623 12.0586ZM15.4444 15C15.0916 15 14.8056 15.2798 14.8056 15.625V17.5C14.8056 18.1902 14.2333 18.75 13.5278 18.75H3.30556C2.59998 18.75 2.02778 18.1902 2.02778 17.5V2.5C2.02778 1.80977 2.59998 1.25 3.30556 1.25H8.41667V5.625C8.41667 6.66016 9.27517 7.5 10.3333 7.5H14.8056V9.375C14.8056 9.71875 15.0931 10 15.4444 10C15.7958 10 16.0833 9.71875 16.0833 9.375V6.66016C16.0833 5.99727 15.8141 5.36094 15.3346 4.89219L11.08 0.732031C10.6009 0.263359 9.95399 0 9.27517 0H3.26962C1.89401 0 0.75 1.11914 0.75 2.5L0.75026 17.5C0.75026 18.8809 1.89467 20 3.30581 20H13.5278C14.9393 20 16.0833 18.8809 16.0833 17.5V15.625C16.0833 15.2812 15.7958 15 15.4444 15ZM9.69444 1.33125C9.87321 1.39242 10.0405 1.48148 10.1784 1.61637L14.431 5.77652C14.57 5.91016 14.6618 6.07422 14.7217 6.25H10.3333C9.98194 6.25 9.69444 5.96875 9.69444 5.625V1.33125Z" fill="currentColor"/>
</svg>
