<svg width="21" height="18" viewBox="0 0 21 18" fill="none" xmlns="http://www.w3.org/2000/svg">
<g clip-path="url(#clip0_616_306007)">
<path d="M19.9195 7.43906C19.5996 6.99961 19.1039 6.75 18.5309 6.75H4.71797C4.01836 6.75 3.38203 7.18945 3.13699 7.84336L1.125 13.2117V3.375C1.125 2.75484 1.62984 2.25 2.25 2.25H6.38086C6.68141 2.25 6.96375 2.367 7.17645 2.57959L9.09492 4.5H15.75C16.3702 4.5 16.875 5.00484 16.875 5.625H18C18 4.38223 16.9928 3.375 15.75 3.375H9.5625L7.96992 1.78418C7.54805 1.36195 6.97852 1.125 6.38086 1.125H2.25C1.00723 1.125 0 2.13223 0 3.375V14.625C0 15.8678 1.00723 16.875 2.25 16.875H16.4215C17.1636 16.875 17.8112 16.3993 18.032 15.6906L20.1414 8.94059C20.3344 8.42344 20.243 7.875 19.9195 7.43906ZM19.0969 8.60625L16.9875 15.3562C16.9137 15.5918 16.6992 15.75 16.4215 15.75H2.25C2.13321 15.75 2.02651 15.7164 1.92048 15.6833C1.8437 15.6421 1.77602 15.5837 1.72375 15.5083C1.61719 15.3545 1.59356 15.1655 1.65948 14.9904L4.19073 8.24045C4.27148 8.02266 4.48242 7.875 4.71797 7.875H18.5625C18.7432 7.875 18.9086 7.9585 19.0157 8.10408C19.1215 8.25117 19.1531 8.43398 19.0969 8.60625Z" fill="currentColor"/>
</g>
<defs>
<clipPath id="clip0_616_306007">
<rect width="20.25" height="18" fill="white"/>
</clipPath>
</defs>
</svg>
