<svg width="19" height="19" viewBox="0 0 19 19" fill="none" xmlns="http://www.w3.org/2000/svg">
<path id="Vector" d="M6.53125 0.500488C5.93132 0.500488 5.35303 0.577799 4.79639 0.732422C4.23975 0.887044 3.72021 1.10661 3.23779 1.39111C2.75537 1.67562 2.3147 2.01733 1.91577 2.41626C1.51685 2.81519 1.17513 3.25586 0.890625 3.73828C0.606119 4.2207 0.386557 4.74023 0.231934 5.29688C0.0773106 5.85352 0 6.4318 0 7.03174C0 7.63167 0.0773106 8.20996 0.231934 8.7666C0.386557 9.32324 0.606119 9.84277 0.890625 10.3252C1.17513 10.8076 1.51685 11.2483 1.91577 11.6472C2.3147 12.0461 2.75537 12.3879 3.23779 12.6724C3.72021 12.9569 4.23975 13.1764 4.79639 13.3311C5.35303 13.4857 5.93132 13.563 6.53125 13.563C7.30436 13.563 8.045 13.4331 8.75317 13.1733C9.46134 12.9136 10.1123 12.5394 10.7061 12.0508L17.9888 19.3242C18.1063 19.4417 18.2454 19.5005 18.4062 19.5005C18.5671 19.5005 18.7062 19.4417 18.8237 19.3242C18.9412 19.2067 19 19.0675 19 18.9067C19 18.7459 18.9412 18.6068 18.8237 18.4893L11.5503 11.2065C12.0389 10.6128 12.4131 9.96183 12.6729 9.25366C12.9326 8.54549 13.0625 7.80485 13.0625 7.03174C13.0625 6.4318 12.9852 5.85352 12.8306 5.29688C12.6759 4.74023 12.4564 4.2207 12.1719 3.73828C11.8874 3.25586 11.5457 2.81519 11.1467 2.41626C10.7478 2.01733 10.3071 1.67562 9.82471 1.39111C9.34229 1.10661 8.82275 0.887044 8.26611 0.732422C7.70947 0.577799 7.13118 0.500488 6.53125 0.500488ZM6.53125 12.3755C5.79525 12.3755 5.10254 12.2348 4.45312 11.9534C3.80371 11.672 3.23779 11.29 2.75537 10.8076C2.27295 10.3252 1.89103 9.75928 1.60962 9.10986C1.32821 8.46045 1.1875 7.76774 1.1875 7.03174C1.1875 6.29574 1.32821 5.60303 1.60962 4.95361C1.89103 4.3042 2.27295 3.73828 2.75537 3.25586C3.23779 2.77344 3.80371 2.39152 4.45312 2.11011C5.10254 1.82869 5.79525 1.68799 6.53125 1.68799C7.26725 1.68799 7.95996 1.82869 8.60938 2.11011C9.25879 2.39152 9.82471 2.77344 10.3071 3.25586C10.7896 3.73828 11.1715 4.3042 11.4529 4.95361C11.7343 5.60303 11.875 6.29574 11.875 7.03174C11.875 7.76774 11.7343 8.46045 11.4529 9.10986C11.1715 9.75928 10.7896 10.3252 10.3071 10.8076C9.82471 11.29 9.25879 11.672 8.60938 11.9534C7.95996 12.2348 7.26725 12.3755 6.53125 12.3755Z" fill="#55565A"/>
</svg>
