<svg width="16" height="18" viewBox="0 0 16 18" fill="none" xmlns="http://www.w3.org/2000/svg">
<path d="M14.9792 2.75002H11.8542L10.7595 1.29331C10.4675 0.898621 10.002 0.666687 9.5105 0.666687H6.90633C6.4148 0.666687 5.9493 0.898621 5.65633 1.29331L4.56258 2.75002H1.43758C1.15116 2.75002 0.916748 2.9844 0.916748 3.27085C0.916748 3.55728 1.15116 3.79169 1.43758 3.79169H14.9792C15.2657 3.79169 15.5001 3.55728 15.5001 3.27085C15.5001 2.9844 15.2657 2.75002 14.9792 2.75002ZM5.86467 2.75002L6.49129 1.91604C6.59058 1.78583 6.74357 1.70835 6.90633 1.70835H9.5105C9.67326 1.70835 9.82788 1.78566 9.92554 1.91587L10.5522 2.75002H5.86467ZM13.9376 4.83335C13.6511 4.83335 13.4167 5.06773 13.4167 5.35419V14.7292C13.4167 15.5908 12.7159 16.2917 11.8542 16.2917H4.56258C3.70093 16.2917 3.00008 15.5918 3.00008 14.7292V5.35419C3.00008 5.06773 2.76701 4.83335 2.47925 4.83335C2.19149 4.83335 1.95841 5.06773 1.95841 5.35419V14.7292C1.95841 16.1647 3.12671 17.3334 4.56258 17.3334H11.8542C13.2901 17.3334 14.4584 16.1651 14.4584 14.7292V5.35419C14.4584 5.06773 14.224 4.83335 13.9376 4.83335ZM5.60425 14.2084V6.91669C5.60425 6.6288 5.37131 6.39585 5.08342 6.39585C4.79552 6.39585 4.56258 6.63023 4.56258 6.91669V14.2084C4.56258 14.4962 4.79552 14.7292 5.08342 14.7292C5.37131 14.7292 5.60425 14.4948 5.60425 14.2084ZM8.72925 14.2084V6.91669C8.72925 6.6288 8.49631 6.39585 8.20842 6.39585C7.92052 6.39585 7.68758 6.63023 7.68758 6.91669V14.2084C7.68758 14.4962 7.92052 14.7292 8.20842 14.7292C8.49631 14.7292 8.72925 14.4948 8.72925 14.2084ZM11.8542 14.2084V6.91669C11.8542 6.6288 11.6213 6.39585 11.3334 6.39585C11.0455 6.39585 10.8126 6.63023 10.8126 6.91669V14.2084C10.8126 14.4962 11.0455 14.7292 11.3334 14.7292C11.6213 14.7292 11.8542 14.4948 11.8542 14.2084Z" fill="currentColor"/>
</svg>
