<svg width="33" height="32" viewBox="0 0 33 32" fill="none" xmlns="http://www.w3.org/2000/svg">
<path fill-rule="evenodd" clip-rule="evenodd" d="M13.7652 9.57077C13.4462 9.34777 13.0802 9.23077 12.6662 9.21777C12.1182 9.23077 11.6622 9.44377 11.2992 9.85677C10.9922 10.2898 10.8462 10.7728 10.8592 11.3068C10.8592 12.0128 11.0732 12.7468 11.5012 13.5098C11.7082 13.8658 11.9762 14.1678 12.3032 14.4158C12.6312 14.6638 13.0062 14.7878 13.4272 14.7878C13.9592 14.7688 14.4032 14.5848 14.7582 14.2348C14.9292 13.9868 15.0392 13.7328 15.0882 13.4718C15.1172 13.2108 15.1322 12.9918 15.1322 12.8138C15.1322 12.0438 14.9282 11.2688 14.5202 10.4868C14.3292 10.1108 14.0772 9.80577 13.7652 9.57077Z" fill="white"/>
<path fill-rule="evenodd" clip-rule="evenodd" d="M13.6295 17.9089C13.5265 17.8959 13.2625 17.9089 12.8375 17.9469C12.4185 18.0039 11.9905 18.0959 11.5525 18.2229C11.4495 18.2609 11.3045 18.3179 11.1185 18.3949C10.9315 18.4769 10.7415 18.5939 10.5485 18.7469C10.3615 18.9049 10.2045 19.1019 10.0755 19.3369C9.92754 19.5839 9.85254 19.8829 9.85254 20.2319C9.85254 20.9169 10.1745 21.4819 10.8185 21.9269C11.4305 22.3709 12.2675 22.5989 13.3305 22.6119C14.2835 22.5989 15.0105 22.3959 15.5125 22.0029C16.0025 21.6149 16.2465 21.1169 16.2465 20.5079C16.2465 20.0129 16.0795 19.5809 15.7445 19.2129C15.3905 18.8639 14.8365 18.4359 14.0835 17.9279C13.9545 17.9149 13.8035 17.9089 13.6295 17.9089Z" fill="white"/>
<path fill-rule="evenodd" clip-rule="evenodd" d="M24.1367 16.5715H21.8507V18.8575H20.7087V16.5715H18.4227V15.4285H20.7087V13.1425H21.8507V15.4285H24.1367V16.5715ZM15.8947 9.60849C16.0467 9.76049 16.1957 9.94749 16.3417 10.1695C16.4817 10.3795 16.6057 10.6265 16.7137 10.9125C16.8027 11.1975 16.8467 11.5305 16.8467 11.9115C16.8347 12.6095 16.6757 13.1675 16.3677 13.5865C16.2167 13.7895 16.0577 13.9765 15.8887 14.1485C15.7017 14.3195 15.5037 14.4945 15.2927 14.6715C15.1717 14.7925 15.0607 14.9285 14.9577 15.0815C14.8377 15.2395 14.7777 15.4235 14.7777 15.6335C14.7777 15.8365 14.8387 16.0045 14.9627 16.1375C15.0677 16.2645 15.1697 16.3755 15.2687 16.4705L15.9547 17.0135C16.3807 17.3495 16.7547 17.7205 17.0767 18.1265C17.3797 18.5395 17.5367 19.0785 17.5497 19.7455C17.5497 20.6905 17.1167 21.5285 16.2517 22.2575C15.3537 23.0125 14.0587 23.4035 12.3667 23.4285C10.9507 23.4155 9.89272 23.1245 9.19472 22.5545C8.48972 22.0225 8.13672 21.3855 8.13672 20.6445C8.13672 20.2835 8.25172 19.8815 8.48072 19.4385C8.70372 18.9945 9.10572 18.6055 9.68972 18.2695C10.3447 17.9085 11.0327 17.6685 11.7537 17.5475C12.4667 17.4465 13.0597 17.3895 13.5317 17.3765C13.3857 17.1915 13.2557 16.9945 13.1417 16.7835C13.0087 16.5795 12.9427 16.3335 12.9427 16.0465C12.9427 15.8745 12.9677 15.7305 13.0187 15.6155C13.0627 15.4945 13.1037 15.3835 13.1417 15.2815C12.9127 15.3065 12.6957 15.3195 12.4927 15.3195C11.4157 15.3065 10.5957 14.9795 10.0307 14.3385C9.43972 13.7425 9.14472 13.0475 9.14472 12.2545C9.14472 11.2965 9.56372 10.4275 10.4007 9.64649C10.9747 9.19049 11.5727 8.89149 12.1927 8.75249C12.8057 8.63149 13.3807 8.57149 13.9177 8.57149H17.9617L16.7127 9.27449H15.4657C15.5927 9.35149 15.7357 9.46249 15.8947 9.60849ZM0.136719 32.0005H32.1367V0.000488281H0.136719V32.0005Z" fill="white"/>
</svg>
