<svg width="24" height="24" viewBox="0 0 24 24" fill="none" xmlns="http://www.w3.org/2000/svg">
<path d="M2 3.6C2 2.71634 2.74619 2 3.66667 2H20.3333C21.2538 2 22 2.71634 22 3.6V6C22 6.88366 21.2538 7.6 20.3333 7.6H3.66667C2.74619 7.6 2 6.88366 2 6V3.6Z" fill="currentColor"/>
<path d="M2 10.8C2 9.9163 2.74619 9.19995 3.66667 9.19995H20.3333C21.2538 9.19995 22 9.9163 22 10.8V13.2C22 14.0836 21.2538 14.8 20.3333 14.8H3.66667C2.74619 14.8 2 14.0836 2 13.2V10.8Z" fill="currentColor"/>
<path d="M2 17.9999C2 17.1162 2.74619 16.3999 3.66667 16.3999H20.3333C21.2538 16.3999 22 17.1162 22 17.9999V20.3999C22 21.2836 21.2538 21.9999 20.3333 21.9999H3.66667C2.74619 21.9999 2 21.2836 2 20.3999V17.9999Z" fill="currentColor"/>
</svg>
