<svg width="33" height="32" viewBox="0 0 33 32" fill="none" xmlns="http://www.w3.org/2000/svg">
<path fill-rule="evenodd" clip-rule="evenodd" d="M0.136719 0H32.1367V32H0.136719V0Z" fill="white"/>
<mask id="mask0_1650_25652" style="mask-type:alpha" maskUnits="userSpaceOnUse" x="0" y="0" width="33" height="32">
<path fill-rule="evenodd" clip-rule="evenodd" d="M0.136719 0H32.1367V32H0.136719V0Z" fill="white"/>
</mask>
<g mask="url(#mask0_1650_25652)">
</g>
<path fill-rule="evenodd" clip-rule="evenodd" d="M16.381 5C13.3275 5 12.9443 5.01335 11.745 5.06793C10.5481 5.12274 9.73104 5.31223 9.01615 5.59027C8.27666 5.87744 7.64938 6.26159 7.02443 6.88676C6.39902 7.51169 6.01487 8.13897 5.72676 8.87822C5.44802 9.59333 5.25829 10.4106 5.20441 11.607C5.15077 12.8063 5.13672 13.1898 5.13672 16.2432C5.13672 19.2967 5.1503 19.6788 5.20465 20.878C5.25969 22.075 5.44919 22.892 5.727 23.6069C6.0144 24.3463 6.39855 24.9736 7.02373 25.5986C7.64844 26.224 8.27572 26.609 9.01474 26.8962C9.7301 27.1743 10.5474 27.3637 11.7441 27.4186C12.9434 27.4731 13.3263 27.4865 16.3796 27.4865C19.4334 27.4865 19.8154 27.4731 21.0147 27.4186C22.2116 27.3637 23.0296 27.1743 23.7449 26.8962C24.4842 26.609 25.1105 26.224 25.7353 25.5986C26.3607 24.9736 26.7448 24.3463 27.0329 23.6071C27.3093 22.892 27.4991 22.0747 27.5553 20.8783C27.6092 19.679 27.6232 19.2967 27.6232 16.2432C27.6232 13.1898 27.6092 12.8066 27.5553 11.6073C27.4991 10.4103 27.3093 9.59333 27.0329 8.87845C26.7448 8.13897 26.3607 7.51169 25.7353 6.88676C25.1098 6.26135 24.4844 5.87721 23.7442 5.59027C23.0275 5.31223 22.21 5.12274 21.013 5.06793C19.8138 5.01335 19.4319 5 16.3775 5H16.381ZM15.3724 7.02613C15.6717 7.02566 16.0058 7.02613 16.381 7.02613C19.383 7.02613 19.7388 7.0369 20.9243 7.09077C22.0205 7.1409 22.6155 7.32407 23.0118 7.47796C23.5365 7.68175 23.9106 7.92535 24.3038 8.31886C24.6974 8.71238 24.941 9.08715 25.1452 9.61184C25.2991 10.0077 25.4825 10.6026 25.5324 11.6989C25.5863 12.8841 25.598 13.2401 25.598 16.2407C25.598 19.2412 25.5863 19.5972 25.5324 20.7825C25.4823 21.8787 25.2991 22.4736 25.1452 22.8695C24.9414 23.3942 24.6974 23.7678 24.3038 24.1611C23.9103 24.5546 23.5367 24.7982 23.0118 25.002C22.6159 25.1566 22.0205 25.3393 20.9243 25.3894C19.739 25.4433 19.383 25.455 16.381 25.455C13.3788 25.455 13.023 25.4433 11.8378 25.3894C10.7415 25.3388 10.1466 25.1556 9.75001 25.0017C9.22532 24.7979 8.85054 24.5543 8.45702 24.1608C8.06351 23.7673 7.8199 23.3935 7.61565 22.8686C7.46175 22.4727 7.27834 21.8777 7.22845 20.7815C7.17458 19.5963 7.1638 19.2403 7.1638 16.2379C7.1638 13.2354 7.17458 12.8813 7.22845 11.6961C7.27858 10.5998 7.46175 10.0049 7.61565 9.60856C7.81943 9.08387 8.06351 8.7091 8.45702 8.31559C8.85054 7.92207 9.22532 7.67847 9.75001 7.47422C10.1463 7.31962 10.7415 7.13692 11.8378 7.08656C12.875 7.03971 13.2769 7.02566 15.3724 7.02332V7.02613ZM22.3826 8.89297C21.6378 8.89297 21.0334 9.49659 21.0334 10.2417C21.0334 10.9866 21.6378 11.5909 22.3826 11.5909C23.1275 11.5909 23.7318 10.9866 23.7318 10.2417C23.7318 9.49683 23.1275 8.8925 22.3826 8.8925V8.89297ZM16.381 10.4694C13.1924 10.4694 10.6071 13.0546 10.6071 16.2432C10.6071 19.4319 13.1924 22.0159 16.381 22.0159C19.5697 22.0159 22.154 19.4319 22.154 16.2432C22.154 13.0546 19.5694 10.4694 16.3808 10.4694H16.381ZM16.381 12.4955C18.4507 12.4955 20.1288 14.1733 20.1288 16.2432C20.1288 18.3129 18.4507 19.991 16.381 19.991C14.3111 19.991 12.6332 18.3129 12.6332 16.2432C12.6332 14.1733 14.3111 12.4955 16.381 12.4955Z" fill="#1436AD"/>
</svg>
