<svg width="145" height="37" viewBox="0 0 145 37" fill="none" xmlns="http://www.w3.org/2000/svg">
<path d="M3.58398 33.8213H34.8382V3.17871H3.58398V33.8213ZM28.8225 15.5516H22.2183V9.07666H28.8225V15.5516ZM9.59844 9.07666H16.2063V21.4484H28.8225V27.9233H9.59844V9.07666ZM55.1906 3.17871C52.0998 3.17871 49.0784 4.0773 46.5086 5.76082C43.9387 7.44435 41.9358 9.83721 40.753 12.6368C39.5702 15.4365 39.2608 18.517 39.8637 21.489C40.4668 24.461 41.955 27.191 44.1405 29.3337C46.326 31.4766 49.1105 32.9357 52.1418 33.5269C55.1733 34.118 58.3153 33.8147 61.1708 32.6551C64.0263 31.4954 66.4669 29.5317 68.1841 27.0121C69.9012 24.4925 70.8177 21.5302 70.8177 18.5C70.8128 14.438 69.1648 10.5437 66.2352 7.67146C63.3056 4.79918 59.3337 3.18345 55.1906 3.17871ZM55.1906 27.9233C53.2896 27.9233 51.4313 27.3707 49.8507 26.3352C48.2702 25.2998 47.0382 23.8281 46.3108 22.1062C45.5833 20.3843 45.393 18.4896 45.7638 16.6616C46.1347 14.8336 47.0501 13.1546 48.3942 11.8367C49.7385 10.5188 51.4511 9.62134 53.3155 9.25773C55.1799 8.89413 57.1124 9.08075 58.8687 9.79397C60.6249 10.5072 62.1261 11.715 63.1822 13.2647C64.2384 14.8143 64.802 16.6362 64.802 18.5C64.7981 20.9981 63.7842 23.3928 61.9826 25.1592C60.1809 26.9256 57.7385 27.9195 55.1906 27.9233ZM126.739 3.17871C123.648 3.17848 120.627 4.07686 118.057 5.76024C115.487 7.44362 113.484 9.8364 112.3 12.636C111.118 15.4355 110.808 18.5163 111.411 21.4883C112.014 24.4604 113.502 27.1906 115.687 29.3334C117.873 31.4762 120.657 32.9356 123.689 33.5268C126.719 34.118 129.862 33.8147 132.718 32.6552C135.573 31.4956 138.014 29.5318 139.73 27.0122C141.449 24.4926 142.365 21.5303 142.365 18.5C142.36 14.4382 140.713 10.5441 137.783 7.67188C134.854 4.79964 130.882 3.18378 126.739 3.17871ZM126.739 27.9233C124.838 27.9236 122.98 27.3711 121.399 26.3358C119.818 25.3005 118.586 23.8288 117.858 22.107C117.131 20.3852 116.94 18.4903 117.311 16.6623C117.682 14.8344 118.597 13.1552 119.941 11.8371C121.285 10.5191 122.998 9.62152 124.862 9.25782C126.727 8.89412 128.659 9.08066 130.415 9.79387C132.172 10.5071 133.673 11.7149 134.73 13.2646C135.785 14.8143 136.349 16.6362 136.349 18.5C136.346 20.9979 135.332 23.3923 133.53 25.1587C131.729 26.9251 129.287 27.9193 126.739 27.9233ZM90.9642 3.17871C87.8734 3.17871 84.852 4.0773 82.2822 5.76082C79.7123 7.44435 77.7094 9.83721 76.5266 12.6368C75.3438 15.4365 75.0344 18.517 75.6373 21.489C76.2403 24.461 77.7286 27.191 79.9141 29.3337C82.0996 31.4766 84.884 32.9357 87.9154 33.5269C90.9468 34.118 94.0889 33.8147 96.9444 32.6551C99.7999 31.4954 102.24 29.5317 103.958 27.0121C105.675 24.4925 106.591 21.5302 106.591 18.5C106.586 14.438 104.938 10.5437 102.009 7.67146C99.0792 4.79918 95.1073 3.18345 90.9642 3.17871ZM90.9642 27.9233C89.193 27.9242 87.4561 27.4453 85.9451 26.5394C84.4342 25.6335 83.2078 24.336 82.4015 22.7898C81.5954 21.2437 81.2404 19.5092 81.3761 17.778C81.5119 16.0466 82.1328 14.3857 83.1706 12.9785C84.2084 11.5714 85.6226 10.4727 87.2569 9.80385C88.8914 9.13496 90.6826 8.92186 92.4327 9.18805C94.1829 9.45425 95.824 10.1894 97.1749 11.3123C98.5259 12.4353 99.534 13.9024 100.088 15.5516H90.9642V21.4484H100.088C99.4535 23.3303 98.2306 24.9686 96.5929 26.1308C94.9552 27.2931 92.9859 27.9201 90.9642 27.9233Z" fill="#20262E"/>
</svg>
