<svg width="121" height="28" viewBox="0 0 121 28" fill="none" xmlns="http://www.w3.org/2000/svg">
<path d="M38.3347 19.6803V19.3851H38.4517V19.3253H38.1536V19.3851H38.2706V19.6803H38.3347ZM38.9137 19.6803V19.3245H38.8222L38.7172 19.5692L38.612 19.3245H38.5206V19.6803H38.585V19.4119L38.6837 19.6431H38.7506L38.8493 19.4111V19.6803H38.9137ZM54.7108 17.0879V13.2616C54.7108 11.8204 53.8074 10.8513 52.3518 10.8384C51.5865 10.8256 50.7958 11.0678 50.2437 11.9223C49.8296 11.2465 49.1769 10.8384 48.261 10.8384C47.6209 10.8384 46.9936 11.0296 46.5043 11.7438V10.9914H45.1993V17.0879H46.5169V13.708C46.5169 12.6495 47.0941 12.0883 47.9849 12.0883C48.8508 12.0883 49.2899 12.6622 49.2899 13.6953V17.0879H50.6074V13.708C50.6074 12.6495 51.2097 12.0883 52.0755 12.0883C52.9664 12.0883 53.393 12.6622 53.393 13.6953V17.0879H54.7108ZM74.2102 10.9916H72.077V9.14254H70.7595V10.9916H69.5424V12.2032H70.7595V14.9834C70.7595 16.3991 71.2991 17.2407 72.8423 17.2407C73.407 17.2407 74.0594 17.0622 74.4735 16.7686L74.0972 15.6337C73.7082 15.8632 73.2815 15.9782 72.9428 15.9782C72.2904 15.9782 72.077 15.5698 72.077 14.9577V12.2032H74.2102V10.9916ZM85.3406 10.8386C84.5877 10.8386 84.0982 11.1958 83.7595 11.7313V10.9916H82.467V17.0879H83.772V13.6698C83.772 12.6622 84.1984 12.101 85.0517 12.101C85.3153 12.101 85.5913 12.1392 85.8674 12.2541L86.269 11.0044C85.9804 10.8895 85.6041 10.8386 85.3406 10.8386ZM68.5135 11.4762C67.8862 11.0553 67.0204 10.8386 66.0666 10.8386C64.5482 10.8386 63.5696 11.5783 63.5696 12.7898C63.5696 13.7846 64.2972 14.397 65.64 14.5882L66.2548 14.6776C66.97 14.7795 67.309 14.9707 67.309 15.3152C67.309 15.7873 66.832 16.0549 65.9411 16.0549C65.038 16.0549 64.3851 15.7616 63.9459 15.4173L63.3311 16.4503C64.0461 16.9861 64.9498 17.2409 65.9286 17.2409C67.6602 17.2409 68.6641 16.4119 68.6641 15.2515C68.6641 14.1801 67.8737 13.6191 66.5684 13.4276L65.9539 13.3383C65.3889 13.2619 64.9373 13.1471 64.9373 12.7389C64.9373 12.2925 65.3639 12.0247 66.0791 12.0247C66.8447 12.0247 67.5851 12.318 67.9488 12.5477L68.5135 11.4762ZM103.473 10.8386C102.72 10.8386 102.23 11.1958 101.891 11.7313V10.9916H100.599V17.0879H101.904V13.6698C101.904 12.6622 102.33 12.101 103.184 12.101C103.447 12.101 103.723 12.1392 103.999 12.2541L104.401 11.0044C104.112 10.8895 103.736 10.8386 103.473 10.8386ZM86.6581 14.0398C86.6581 15.8891 87.9255 17.2409 89.8578 17.2409C90.7612 17.2409 91.3634 17.0367 92.0158 16.514L91.3885 15.4428C90.8992 15.8 90.3846 15.991 89.82 15.991C88.7785 15.9785 88.0132 15.2131 88.0132 14.0398C88.0132 12.8665 88.7785 12.1013 89.82 12.0886C90.3846 12.0886 90.8992 12.2798 91.3885 12.637L92.0158 11.5656C91.3634 11.0426 90.7612 10.8386 89.8578 10.8386C87.9252 10.8386 86.6581 12.1904 86.6581 14.0398ZM98.88 14.0398V10.9916H97.575V11.7313C97.1609 11.1831 96.5335 10.8386 95.6803 10.8386C93.9987 10.8386 92.6812 12.1777 92.6812 14.0398C92.6812 15.9019 93.9987 17.2409 95.6803 17.2409C96.5335 17.2409 97.1609 16.8964 97.575 16.3482V17.0879H98.88V14.0398ZM94.0238 14.0398C94.0238 12.9683 94.714 12.0886 95.8433 12.0886C96.9224 12.0886 97.6501 12.9301 97.6501 14.0398C97.6501 15.1492 96.9224 15.991 95.8433 15.991C94.714 15.9907 94.0238 15.111 94.0238 14.0398ZM78.276 10.8386C76.5193 10.8386 75.2897 12.1395 75.2897 14.0398C75.2897 15.9785 76.5694 17.2409 78.3639 17.2409C79.2673 17.2409 80.0955 17.0115 80.8233 16.3867L80.1832 15.4046C79.6814 15.813 79.0413 16.0424 78.4391 16.0424C77.5983 16.0424 76.833 15.647 76.6448 14.5503H81.0992C81.1119 14.3845 81.1245 14.2188 81.1245 14.0403C81.1119 12.1395 79.9575 10.8386 78.276 10.8386ZM78.2509 12.0247C79.0915 12.0247 79.6313 12.5604 79.7694 13.504H76.6573C76.7954 12.624 77.3222 12.0247 78.2509 12.0247ZM110.989 14.0398V8.54289H109.684V11.7311C109.27 11.1829 108.642 10.8384 107.789 10.8384C106.107 10.8384 104.79 12.1774 104.79 14.0395C104.79 15.9016 106.107 17.2407 107.789 17.2407C108.642 17.2407 109.27 16.8962 109.684 16.348V17.0877H110.989V14.0398ZM112.514 16.5252C112.567 16.5252 112.618 16.5354 112.665 16.5555C112.712 16.5759 112.753 16.6034 112.788 16.6385C112.823 16.6736 112.851 16.7146 112.871 16.7617C112.891 16.8088 112.901 16.859 112.901 16.912C112.901 16.9652 112.891 17.0151 112.871 17.0619C112.851 17.1088 112.823 17.1495 112.788 17.1844C112.753 17.2198 112.711 17.2473 112.665 17.2679C112.618 17.2886 112.567 17.2987 112.514 17.2987C112.459 17.2987 112.408 17.2886 112.36 17.2679C112.313 17.2473 112.272 17.2198 112.237 17.1844C112.202 17.1493 112.175 17.1085 112.154 17.0619C112.134 17.0151 112.124 16.9652 112.124 16.912C112.124 16.859 112.134 16.8088 112.154 16.7617C112.175 16.7144 112.202 16.6734 112.237 16.6385C112.272 16.6034 112.313 16.5759 112.36 16.5555C112.408 16.5354 112.459 16.5252 112.514 16.5252ZM112.514 17.2137C112.555 17.2137 112.593 17.2058 112.629 17.19C112.664 17.174 112.695 17.1526 112.722 17.1253C112.749 17.0983 112.77 17.0663 112.785 17.0296C112.8 16.9927 112.808 16.9537 112.808 16.912C112.808 16.8702 112.8 16.8312 112.785 16.7943C112.77 16.7577 112.749 16.7258 112.722 16.6986C112.695 16.6716 112.664 16.6502 112.629 16.6347C112.593 16.6189 112.555 16.6112 112.514 16.6112C112.472 16.6112 112.433 16.6189 112.397 16.6347C112.36 16.6502 112.329 16.6716 112.302 16.6986C112.276 16.7258 112.255 16.7577 112.239 16.7943C112.224 16.8312 112.216 16.8702 112.216 16.912C112.216 16.9537 112.224 16.9927 112.239 17.0296C112.255 17.0663 112.276 17.0983 112.302 17.1253C112.329 17.1523 112.36 17.174 112.397 17.19C112.433 17.2058 112.472 17.2137 112.514 17.2137ZM112.536 16.7309C112.582 16.7309 112.617 16.7411 112.641 16.7617C112.666 16.7821 112.678 16.8101 112.678 16.8455C112.678 16.8753 112.668 16.8997 112.649 16.9191C112.629 16.9382 112.601 16.9502 112.565 16.9547L112.681 17.0902H112.59L112.483 16.9555H112.448V17.0902H112.373V16.7309H112.536ZM112.448 16.7984V16.8941H112.535C112.555 16.8941 112.571 16.8901 112.583 16.8822C112.595 16.8743 112.601 16.8621 112.601 16.8455C112.601 16.8297 112.595 16.818 112.583 16.8099C112.571 16.802 112.555 16.7981 112.535 16.7981H112.448V16.7984ZM106.133 14.0398C106.133 12.9683 106.823 12.0886 107.952 12.0886C109.031 12.0886 109.759 12.9301 109.759 14.0398C109.759 15.1492 109.031 15.991 107.952 15.991C106.823 15.9907 106.133 15.111 106.133 14.0398ZM62.064 14.0398V10.9916H60.759V11.7313C60.3449 11.1831 59.7175 10.8386 58.8643 10.8386C57.183 10.8386 55.8652 12.1777 55.8652 14.0398C55.8652 15.9019 57.1827 17.2409 58.8643 17.2409C59.7175 17.2409 60.3449 16.8964 60.759 16.3482V17.0879H62.064V14.0398ZM57.2078 14.0398C57.2078 12.9683 57.898 12.0886 59.0274 12.0886C60.1064 12.0886 60.8341 12.9301 60.8341 14.0398C60.8341 15.1492 60.1064 15.991 59.0274 15.991C57.898 15.9907 57.2078 15.111 57.2078 14.0398ZM23.8035 21.4512C23.8739 21.5133 23.9483 21.5734 24.0214 21.6348C22.5917 22.6026 20.8751 23.1669 19.0287 23.1669C14.0475 23.1669 10.0098 19.0628 10.0098 14.0003C10.0098 8.93782 14.0475 4.83375 19.0287 4.83375C20.8751 4.83375 22.5917 5.398 24.0214 6.36584C23.9483 6.42669 23.8744 6.48679 23.8035 6.54917C21.6787 8.42806 20.4602 11.1439 20.4602 14.0003C20.4599 16.8567 21.6785 19.5726 23.8035 21.4512ZM30.1763 4.8335C28.33 4.8335 26.6133 5.39775 25.1836 6.36558C25.2568 6.42644 25.3307 6.48653 25.4016 6.54917C27.5263 8.4278 28.7448 11.1437 28.7448 14.0003C28.7448 16.8567 27.5263 19.5726 25.4016 21.4514C25.3312 21.5136 25.2568 21.5737 25.1833 21.635C26.6131 22.6026 28.3297 23.1669 30.1761 23.1669C35.157 23.1669 39.195 19.063 39.195 14.0006C39.1952 8.93757 35.1573 4.8335 30.1763 4.8335ZM24.6026 6.79667C24.4864 6.88961 24.3726 6.98534 24.2614 7.08363C22.3609 8.76417 21.1579 11.2384 21.1579 13.9998C21.1579 16.7612 22.3609 19.2354 24.2614 20.916C24.3726 21.0145 24.4864 21.11 24.6026 21.2029C24.7189 21.11 24.8326 21.0145 24.9438 20.916C26.8443 19.2352 28.0474 16.7612 28.0474 13.9998C28.0474 11.2384 26.8443 8.76417 24.9438 7.08363C24.8324 6.98534 24.7186 6.88961 24.6026 6.79667Z" fill="white"/>
</svg>
