<svg width="24" height="24" viewBox="0 0 24 24" fill="none" xmlns="http://www.w3.org/2000/svg">
<path d="M7.8 10.5C7.386 10.5 7.05 10.8357 7.05 11.25C7.05 11.6625 7.35375 12 7.8 12C8.24625 12 8.55 11.6642 8.55 11.25C8.55 10.8038 8.2125 10.5 7.8 10.5ZM8.4225 4.8H7.0575C6.1425 4.8 5.4 5.544 5.4 6.4575C5.4 6.78915 5.66835 7.0575 6 7.0575C6.33165 7.0575 6.6 6.78915 6.6 6.4575C6.6 6.20625 6.80625 6 7.0575 6H8.421C8.74125 6 9 6.25875 9 6.5775C9 6.79781 8.87753 6.996 8.67248 7.09838L7.5225 7.695C7.32375 7.76625 7.2 8.0025 7.2 8.2275V9C7.2 9.33 7.47 9.6 7.8 9.6C8.13 9.6 8.4 9.33 8.4 8.99625V8.59125L9.21675 8.16713C9.79125 7.8675 10.2 7.25625 10.2 6.5775C10.2 5.59763 9.40125 4.8 8.4225 4.8ZM21.6 7.2H16.8V8.4H21.6C22.2615 8.4 22.8 8.9385 22.8 9.6V16.8C22.8 17.4615 22.2615 18 21.6 18H19.2V19.8589L15.915 18H12C11.3385 18 10.8 17.4615 10.8 16.8V15.6L9.6 15.5999V16.7991C9.6 18.121 10.6781 19.1654 11.9663 19.1654L15.6 19.2L19.6838 21.5111C19.7663 21.5738 19.86 21.6 19.95 21.6C20.1863 21.6 20.4 21.4163 20.4 21.15V19.1989H21.6C22.9219 19.1989 24 18.1208 24 16.8326V9.56625C24 8.27625 22.9238 7.2 21.6 7.2ZM15.6 12V4.76625C15.6 3.47813 14.5238 2.4 13.2 2.4H2.4C1.07812 2.4 0 3.47813 0 4.76625V11.9663C0 13.3238 1.07812 14.4 2.4 14.4L3.6 14.4004V16.35C3.6 16.6163 3.8175 16.8 4.05 16.8C4.13906 16.8 4.23281 16.7719 4.31719 16.7109L8.4 14.4L13.2 14.3972C14.5238 14.3963 15.6 13.3238 15.6 12ZM8.085 13.2L4.8 15.06V13.2H2.4C1.7385 13.2 1.2 12.66 1.2 12V4.8C1.2 4.1385 1.7385 3.6 2.4 3.6H13.2C13.8615 3.6 14.4 4.1385 14.4 4.8V12C14.4 12.6615 13.8615 13.2 13.2 13.2H8.085Z" fill="currentColor"/>
</svg>
