<svg width="69" height="18" viewBox="0 0 69 18" fill="none" xmlns="http://www.w3.org/2000/svg">
<g clip-path="url(#clip0_1650_25630)">
<path d="M25.7062 3.68115H21.9758C21.8523 3.68107 21.7329 3.7251 21.6389 3.80531C21.545 3.88551 21.4829 3.99662 21.4636 4.11861L19.9549 13.6842C19.948 13.7286 19.9507 13.774 19.963 13.8172C19.9753 13.8604 19.9968 13.9005 20.026 13.9346C20.0553 13.9687 20.0915 13.9961 20.1324 14.0148C20.1732 14.0335 20.2176 14.0432 20.2625 14.0432H22.0434C22.167 14.0432 22.2865 13.9991 22.3805 13.9188C22.4744 13.8385 22.5365 13.7272 22.5556 13.6052L22.9625 11.0252C22.9816 10.9032 23.0437 10.792 23.1375 10.7117C23.2313 10.6314 23.3507 10.5872 23.4742 10.5872H24.6551C27.1124 10.5872 28.5305 9.39806 28.9009 7.0417C29.0678 6.01079 28.908 5.20079 28.4253 4.63352C27.8951 4.01061 26.9547 3.68115 25.7062 3.68115ZM26.1365 7.17479C25.9325 8.51333 24.9098 8.51333 23.9209 8.51333H23.358L23.7529 6.01352C23.7645 5.94038 23.8017 5.87377 23.858 5.82568C23.9143 5.77758 23.9859 5.75115 24.06 5.75115H24.318C24.9916 5.75115 25.6271 5.75115 25.9554 6.13515C26.1513 6.36424 26.2113 6.70461 26.1365 7.17479ZM36.8569 7.1317H35.0705C34.9965 7.1317 34.9249 7.15813 34.8686 7.20622C34.8123 7.25432 34.775 7.32093 34.7634 7.39406L34.6844 7.8937L34.5594 7.71261C34.1727 7.15133 33.3104 6.9637 32.4496 6.9637C30.4756 6.9637 28.7896 8.45879 28.4613 10.5561C28.2905 11.6022 28.5333 12.6026 29.1267 13.3002C29.6711 13.9417 30.45 14.209 31.3767 14.209C32.9673 14.209 33.8493 13.1862 33.8493 13.1862L33.7696 13.6826C33.7625 13.727 33.7651 13.7724 33.7773 13.8156C33.7894 13.8589 33.8108 13.899 33.8399 13.9333C33.8691 13.9675 33.9053 13.995 33.9461 14.0139C33.9868 14.0327 34.0312 14.0425 34.0762 14.0426H35.6853C35.8088 14.0427 35.9284 13.9986 36.0223 13.9182C36.1162 13.8379 36.1783 13.7267 36.1974 13.6046L37.1629 7.49061C37.17 7.44633 37.1674 7.40103 37.1553 7.35785C37.1432 7.31467 37.1219 7.27464 37.0928 7.24051C37.0637 7.20638 37.0275 7.17898 36.9868 7.16019C36.9461 7.14141 36.9017 7.13168 36.8569 7.1317ZM34.3669 10.6084C34.1945 11.629 33.3845 12.3141 32.3514 12.3141C31.8327 12.3141 31.4182 12.1477 31.152 11.8324C30.888 11.5193 30.7876 11.0737 30.8716 10.5773C31.0325 9.56552 31.8562 8.85806 32.8734 8.85806C33.3807 8.85806 33.7931 9.02661 34.0647 9.34461C34.3369 9.66588 34.4449 10.1142 34.3669 10.6084ZM46.3707 7.1317H44.5756C44.491 7.13183 44.4076 7.15262 44.3328 7.19226C44.258 7.23189 44.194 7.28918 44.1464 7.35915L41.6705 11.0061L40.6211 7.50152C40.5889 7.39463 40.5231 7.30095 40.4335 7.23435C40.3439 7.16774 40.2353 7.13175 40.1236 7.1317H38.3596C38.3101 7.13157 38.2613 7.14326 38.2172 7.16582C38.1731 7.18837 38.1351 7.22112 38.1062 7.26136C38.0773 7.30159 38.0585 7.34813 38.0512 7.39712C38.044 7.4461 38.0485 7.49611 38.0645 7.54297L40.0418 13.3455L38.1829 15.9697C38.1499 16.0162 38.1303 16.0709 38.1263 16.1279C38.1223 16.1848 38.134 16.2417 38.1602 16.2924C38.1864 16.3431 38.226 16.3856 38.2748 16.4153C38.3235 16.445 38.3795 16.4606 38.4365 16.4606H40.2294C40.3132 16.4607 40.3956 16.4405 40.4698 16.4018C40.544 16.363 40.6077 16.3068 40.6554 16.2381L46.626 7.61988C46.6584 7.57325 46.6773 7.51866 46.6809 7.46201C46.6844 7.40537 46.6724 7.34883 46.6461 7.29854C46.6198 7.24824 46.5802 7.20611 46.5317 7.1767C46.4831 7.14729 46.4275 7.13172 46.3707 7.1317Z" fill="white"/>
<path d="M52.3137 3.68121H48.5828C48.4594 3.68126 48.34 3.72535 48.2463 3.80554C48.1525 3.88574 48.0904 3.99677 48.0711 4.11866L46.5624 13.6843C46.5554 13.7286 46.5581 13.7739 46.5702 13.8171C46.5824 13.8603 46.6038 13.9003 46.633 13.9344C46.6621 13.9685 46.6983 13.9959 46.739 14.0147C46.7798 14.0335 46.8241 14.0432 46.869 14.0432H48.7835C48.8699 14.0431 48.9534 14.0121 49.019 13.9559C49.0846 13.8998 49.1279 13.822 49.1413 13.7367L49.5695 11.0252C49.5886 10.9032 49.6507 10.7921 49.7445 10.7118C49.8383 10.6314 49.9577 10.5873 50.0811 10.5872H51.2615C53.7193 10.5872 55.137 9.39812 55.5079 7.04175C55.6753 6.01085 55.5144 5.20085 55.0317 4.63357C54.502 4.01066 53.5622 3.68121 52.3137 3.68121ZM52.744 7.17485C52.5406 8.51339 51.5179 8.51339 50.5284 8.51339H49.9661L50.3615 6.01357C50.3728 5.94044 50.41 5.87377 50.4662 5.82565C50.5224 5.77752 50.594 5.75112 50.668 5.75121H50.926C51.5991 5.75121 52.2351 5.75121 52.5635 6.13521C52.7593 6.3643 52.8188 6.70466 52.744 7.17485ZM63.4639 7.13175H61.6786C61.6046 7.13155 61.5329 7.15792 61.4766 7.20606C61.4204 7.25421 61.3833 7.32093 61.3721 7.39412L61.293 7.89375L61.1675 7.71266C60.7808 7.15139 59.919 6.96375 59.0582 6.96375C57.0842 6.96375 55.3988 8.45885 55.0704 10.5561C54.9002 11.6023 55.1419 12.6027 55.7353 13.3003C56.2808 13.9418 57.0586 14.209 57.9853 14.209C59.5759 14.209 60.4579 13.1863 60.4579 13.1863L60.3782 13.6827C60.3711 13.7271 60.3738 13.7726 60.386 13.816C60.3982 13.8593 60.4196 13.8995 60.4489 13.9337C60.4781 13.968 60.5145 13.9954 60.5554 14.0143C60.5963 14.0331 60.6408 14.0428 60.6859 14.0427H62.2944C62.4179 14.0426 62.5373 13.9984 62.6311 13.9181C62.7249 13.8378 62.7869 13.7267 62.806 13.6047L63.7721 7.49066C63.7789 7.44624 63.7761 7.40087 63.7637 7.35765C63.7514 7.31444 63.7298 7.27441 63.7005 7.24031C63.6712 7.20621 63.6349 7.17885 63.5941 7.16012C63.5532 7.14138 63.5088 7.1317 63.4639 7.13175ZM60.9739 10.6085C60.8026 11.629 59.9915 12.3141 58.9584 12.3141C58.4408 12.3141 58.0251 12.1478 57.759 11.8325C57.495 11.5194 57.3957 11.0738 57.4786 10.5774C57.6406 9.56557 58.4631 8.85812 59.4804 8.85812C59.9877 8.85812 60.4001 9.02666 60.6717 9.34466C60.945 9.66594 61.053 10.1143 60.9739 10.6085ZM65.5699 3.94357L64.0388 13.6843C64.0318 13.7286 64.0344 13.7739 64.0466 13.8171C64.0588 13.8603 64.0802 13.9003 64.1093 13.9344C64.1385 13.9685 64.1746 13.9959 64.2154 14.0147C64.2561 14.0335 64.3005 14.0432 64.3453 14.0432H65.8846C66.1404 14.0432 66.3575 13.8578 66.3968 13.6052L67.9066 4.04012C67.9136 3.99578 67.9109 3.95045 67.8988 3.90725C67.8866 3.86404 67.8652 3.82398 67.8361 3.78983C67.8069 3.75567 67.7708 3.72823 67.73 3.70939C67.6893 3.69054 67.6449 3.68074 67.6001 3.68066H65.8764C65.8024 3.68093 65.7309 3.70753 65.6748 3.7557C65.6186 3.80388 65.5814 3.87048 65.5699 3.94357Z" fill="#F5F5F5"/>
<path d="M4.46365 15.9022L4.74892 14.0902L4.11347 14.0755H1.0791L3.18783 0.704778C3.19411 0.663924 3.21486 0.626687 3.2463 0.599854C3.27773 0.57302 3.31777 0.558378 3.3591 0.558596H8.47546C10.174 0.558596 11.3462 0.912051 11.9582 1.60969C12.2451 1.93696 12.4278 2.27896 12.5162 2.65532C12.6089 3.05023 12.6106 3.52205 12.52 4.0975L12.5135 4.1395V4.50823L12.8004 4.67078C13.0194 4.78174 13.2163 4.93185 13.3813 5.11369C13.6267 5.39351 13.7855 5.74914 13.8526 6.17078C13.9218 6.60441 13.8989 7.12041 13.7855 7.7046C13.6546 8.3766 13.4429 8.96187 13.1571 9.44078C12.9049 9.8698 12.5659 10.2414 12.1616 10.5317C11.782 10.8011 11.3309 11.0057 10.8209 11.1366C10.3267 11.2653 9.76328 11.3302 9.14528 11.3302H8.7471C8.46237 11.3302 8.18583 11.4328 7.96874 11.6166C7.75195 11.8024 7.60815 12.0591 7.56292 12.341L7.53292 12.504L7.02892 15.6977L7.00601 15.815C7.00001 15.852 6.98965 15.8706 6.97437 15.8831C6.95958 15.8952 6.94112 15.902 6.92201 15.9022H4.46365Z" fill="white"/>
<path d="M13.0712 4.18188C13.0559 4.27952 13.0384 4.37934 13.0188 4.48188C12.3441 7.94607 10.0357 9.14279 7.08753 9.14279H5.58644C5.2259 9.14279 4.92208 9.40461 4.8659 9.76025L4.09735 14.6344L3.87972 16.0161C3.87105 16.0709 3.87436 16.1269 3.88942 16.1803C3.90448 16.2337 3.93094 16.2832 3.96696 16.3254C4.00299 16.3676 4.04774 16.4015 4.09812 16.4247C4.1485 16.448 4.20332 16.46 4.25881 16.4601H6.92117C7.23644 16.4601 7.50426 16.231 7.5539 15.9201L7.58008 15.7848L8.08135 12.6037L8.11353 12.4292C8.16262 12.1172 8.43099 11.8881 8.74626 11.8881H9.14444C11.7239 11.8881 13.7432 10.8408 14.3334 7.81025C14.5799 6.54425 14.4523 5.48716 13.7999 4.7437C13.5931 4.51372 13.3462 4.32334 13.0712 4.18188Z" fill="#F5F5F5"/>
<path d="M12.3657 3.90058C12.1502 3.83826 11.9311 3.78961 11.7095 3.75494C11.2717 3.68766 10.8292 3.65537 10.3862 3.6584H6.37603C6.22341 3.65828 6.07579 3.71276 5.95985 3.812C5.8439 3.91124 5.76729 4.04868 5.74385 4.19949L4.89076 9.60276L4.86621 9.7604C4.89279 9.58839 4.98005 9.43158 5.11221 9.31832C5.24437 9.20507 5.41271 9.14286 5.58676 9.14294H7.08785C10.036 9.14294 12.3444 7.94567 13.0191 4.48203C13.0393 4.37949 13.0562 4.27967 13.0715 4.18203C12.8934 4.08867 12.7079 4.01039 12.5168 3.94803C12.4667 3.93141 12.4163 3.91559 12.3657 3.90058Z" fill="#222D65"/>
<path d="M5.74395 4.19945C5.76719 4.04861 5.84377 3.9111 5.95977 3.81191C6.07577 3.71272 6.22351 3.65844 6.37613 3.65891H10.3863C10.8614 3.65891 11.3049 3.69 11.7096 3.75545C11.9835 3.7985 12.2536 3.86288 12.5174 3.948C12.7165 4.014 12.9014 4.092 13.0721 4.182C13.2729 2.90182 13.0705 2.03018 12.3783 1.24091C11.6152 0.372 10.2379 0 8.47559 0H3.35922C2.99922 0 2.69213 0.261818 2.6365 0.618L0.505405 14.1262C0.495479 14.1889 0.499256 14.253 0.516475 14.3141C0.533695 14.3753 0.563949 14.4319 0.605157 14.4802C0.646364 14.5285 0.697547 14.5673 0.755184 14.594C0.812821 14.6206 0.875545 14.6345 0.939042 14.6345H4.09777L4.89086 9.60273L5.74395 4.19945Z" fill="white"/>
</g>
<defs>
<clipPath id="clip0_1650_25630">
<rect width="67.6364" height="18" fill="white" transform="translate(0.5)"/>
</clipPath>
</defs>
</svg>
