<svg width="33" height="32" viewBox="0 0 33 32" fill="none" xmlns="http://www.w3.org/2000/svg">
<path fill-rule="evenodd" clip-rule="evenodd" d="M0.136719 0H32.1367V32H0.136719V0Z" fill="white"/>
<path fill-rule="evenodd" clip-rule="evenodd" d="M16.1374 5C10.0627 5 5.13672 9.92468 5.13672 16.0006C5.13672 20.5036 7.84549 24.374 11.7224 26.0751C11.6913 25.308 11.7172 24.3844 11.9125 23.5487C12.1247 22.6561 13.3277 17.5555 13.3277 17.5555C13.3277 17.5555 12.9771 16.8531 12.9771 15.8144C12.9771 14.1845 13.9227 12.9672 15.0986 12.9672C16.0986 12.9672 16.5824 13.7188 16.5824 14.6191C16.5824 15.6242 15.9407 17.1287 15.6109 18.5218C15.3353 19.69 16.1956 20.6407 17.3469 20.6407C19.4308 20.6407 20.8344 17.9643 20.8344 14.7924C20.8344 12.3825 19.2109 10.5779 16.2577 10.5779C12.9215 10.5779 10.8427 13.0655 10.8427 15.8441C10.8427 16.804 11.1247 17.4792 11.5671 18.0018C11.7715 18.2437 11.7987 18.3394 11.7249 18.6163C11.6732 18.8168 11.5516 19.3058 11.5012 19.4985C11.4274 19.7766 11.2023 19.8775 10.9514 19.774C9.41331 19.1466 8.69796 17.4637 8.69796 15.5712C8.69796 12.4472 11.333 8.69836 16.5591 8.69836C20.7593 8.69836 23.5237 11.7396 23.5237 15.0007C23.5237 19.3161 21.1254 22.5397 17.5875 22.5397C16.4013 22.5397 15.2836 21.8981 14.9007 21.1698C14.9007 21.1698 14.2617 23.7039 14.1271 24.1929C13.8943 25.0402 13.4377 25.8888 13.0198 26.5485C14.0094 26.8409 15.0546 27 16.1374 27C22.212 27 27.1367 22.0753 27.1367 16.0006C27.1367 9.92468 22.212 5 16.1374 5Z" fill="#1436AD"/>
</svg>
