<svg width="43" height="14" viewBox="0 0 43 14" fill="none" xmlns="http://www.w3.org/2000/svg">
<path d="M18.7074 13.2834H15.2803L17.4222 0.724854H20.8496L18.7074 13.2834Z" fill="white"/>
<path d="M12.3972 0.724854L9.12993 9.36274L8.74331 7.50267L8.74366 7.50334L7.59049 1.85595C7.59049 1.85595 7.45106 0.724854 5.96479 0.724854H0.56338L0.5 0.9375C0.5 0.9375 2.15211 1.26537 4.08486 2.37328L7.06233 13.2838H10.6331L16.0856 0.724854H12.3972Z" fill="white"/>
<path d="M39.3527 13.2833H42.4995L39.7559 0.724365H37.0006C35.7284 0.724365 35.4185 1.66028 35.4185 1.66028L30.3076 13.2833H33.8798L34.5942 11.4178H38.9509L39.3527 13.2833ZM35.5816 8.84088L37.3823 4.14116L38.3953 8.84088H35.5816Z" fill="white"/>
<path d="M30.5764 3.74479L31.0655 1.04757C31.0655 1.04757 29.5563 0.5 27.9831 0.5C26.2824 0.5 22.2436 1.20949 22.2436 4.65753C22.2436 7.90232 26.9838 7.94263 26.9838 9.64649C26.9838 11.3504 22.7324 11.0457 21.3292 9.97101L20.8193 12.7905C20.8193 12.7905 22.3496 13.5 24.688 13.5C27.0264 13.5 30.5549 12.3444 30.5549 9.20037C30.5549 5.93509 25.7722 5.63107 25.7722 4.21141C25.7722 2.79141 29.1098 2.97382 30.5764 3.74479Z" fill="white"/>
<path d="M8.74366 7.50286L7.59049 1.85546C7.59049 1.85546 7.45106 0.724365 5.96479 0.724365H0.56338L0.5 0.937012C0.5 0.937012 3.09613 1.45032 5.58662 3.37355C7.96725 5.21178 8.74366 7.50286 8.74366 7.50286Z" fill="white"/>
</svg>
